<svg width="825" height="110" viewBox="0 0 825 110" fill="none" xmlns="http://www.w3.org/2000/svg">
<line x1="701" y1="10" x2="601" y2="10" stroke="#FB5607" stroke-width="10"/>
<line x1="701" y1="100" x2="601" y2="100" stroke="#FB5607" stroke-width="10"/>
<line x1="606" y1="5.00003" x2="606" y2="105" stroke="#FB5607" stroke-width="10"/>
<circle cx="606" cy="100" r="10" fill="#EEDACC"/>
<circle cx="696" cy="100" r="10" fill="#EEDACC"/>
<circle cx="606" cy="10" r="10" fill="#EEDACC"/>
<circle cx="696" cy="10" r="10" fill="#EEDACC"/>
<line x1="487" y1="105" x2="487" y2="5" stroke="#8338EC" stroke-width="10"/>
<line x1="582" y1="10" x2="482" y2="9.99999" stroke="#8338EC" stroke-width="10"/>
<line x1="582" y1="55" x2="482" y2="55" stroke="#8338EC" stroke-width="10"/>
<line x1="577" y1="105" x2="577" y2="5" stroke="#8338EC" stroke-width="10"/>
<circle cx="577" cy="55" r="10" fill="#EEDACC"/>
<circle cx="487" cy="10" r="10" fill="#EEDACC"/>
<circle cx="577" cy="10" r="10" fill="#EEDACC"/>
<circle cx="487" cy="55" r="10" fill="#EEDACC"/>
<circle cx="487" cy="100" r="10" fill="#EEDACC"/>
<circle cx="577" cy="100" r="10" fill="#EEDACC"/>
<line x1="820" y1="10" x2="720" y2="9.99999" stroke="#3A86FF" stroke-width="10"/>
<line x1="820" y1="55" x2="720" y2="55" stroke="#3A86FF" stroke-width="10"/>
<line x1="820" y1="100" x2="720" y2="100" stroke="#3A86FF" stroke-width="10"/>
<line x1="725" y1="5" x2="725" y2="105" stroke="#3A86FF" stroke-width="10"/>
<circle cx="725" cy="100" r="10" fill="#EEDACC"/>
<circle cx="815" cy="100" r="10" fill="#EEDACC"/>
<circle cx="725" cy="10" r="10" fill="#EEDACC"/>
<circle cx="815" cy="10" r="10" fill="#EEDACC"/>
<circle cx="725" cy="55" r="10" fill="#EEDACC"/>
<circle cx="815" cy="55" r="10" fill="#EEDACC"/>
<line x1="130" y1="5" x2="130" y2="105" stroke="#FFBE0B" stroke-width="10"/>
<path d="M131.347 8.44522L218.649 101.585" stroke="#FFBE0B" stroke-width="10"/>
<line x1="220" y1="5" x2="220" y2="105" stroke="#FFBE0B" stroke-width="10"/>
<circle cx="130" cy="100" r="10" fill="#EEDACC"/>
<circle cx="219" cy="100" r="10" fill="#EEDACC"/>
<circle cx="130" cy="10" r="10" fill="#EEDACC"/>
<circle cx="220" cy="10" r="10" fill="#EEDACC"/>
<line x1="293" y1="5" x2="293" y2="105" stroke="#FB5607" stroke-width="10"/>
<line x1="244" y1="10" x2="344" y2="10" stroke="#FB5607" stroke-width="10"/>
<circle cx="293" cy="100" r="10" fill="#EEDACC"/>
<circle cx="249" cy="10" r="10" fill="#EEDACC"/>
<circle cx="339" cy="10" r="10" fill="#EEDACC"/>
<path d="M456.649 101.585L412.127 54.0861" stroke="#FF006E" stroke-width="10"/>
<line x1="458" y1="5" x2="458" y2="55" stroke="#FF006E" stroke-width="10"/>
<line x1="363" y1="10" x2="463" y2="10" stroke="#FF006E" stroke-width="10"/>
<line x1="363" y1="55" x2="463" y2="55" stroke="#FF006E" stroke-width="10"/>
<line x1="368" y1="5" x2="368" y2="105" stroke="#FF006E" stroke-width="10"/>
<circle cx="368" cy="10" r="10" fill="#EEDACC"/>
<circle cx="458" cy="10" r="10" fill="#EEDACC"/>
<circle cx="368" cy="55" r="10" fill="#EEDACC"/>
<circle cx="458" cy="55" r="10" fill="#EEDACC"/>
<circle cx="413" cy="55" r="10" fill="#EEDACC"/>
<circle cx="368" cy="100" r="10" fill="#EEDACC"/>
<circle cx="458" cy="100" r="10" fill="#EEDACC"/>
<line x1="10" y1="5" x2="10" y2="105" stroke="#FB5607" stroke-width="10"/>
<line x1="100" y1="5" x2="100" y2="105" stroke="#FB5607" stroke-width="10"/>
<line x1="5.00002" y1="100" x2="105" y2="100" stroke="#FB5607" stroke-width="10"/>
<circle cx="100" cy="100" r="10" transform="rotate(-90 100 100)" fill="#EEDACC"/>
<circle cx="100" cy="10" r="10" transform="rotate(-90 100 10)" fill="#EEDACC"/>
<circle cx="10" cy="100" r="10" transform="rotate(-90 10 100)" fill="#EEDACC"/>
<circle cx="10" cy="10" r="10" transform="rotate(-90 10 10)" fill="#EEDACC"/>
<circle cx="100" cy="55" r="10" fill="#EEDACC"/>
</svg>
