<svg width="650" height="157" viewBox="0 0 650 157" fill="none" xmlns="http://www.w3.org/2000/svg">
<line x1="555" y1="10" x2="455" y2="10" stroke="#FB5607" stroke-width="10"/>
<line x1="555" y1="100" x2="455" y2="100" stroke="#FB5607" stroke-width="10"/>
<line x1="460" y1="5.00002" x2="460" y2="105" stroke="#FB5607" stroke-width="10"/>
<circle cx="460" cy="100" r="10" fill="#EEDACC"/>
<circle cx="550" cy="100" r="10" fill="#EEDACC"/>
<circle cx="460" cy="10" r="10" fill="#EEDACC"/>
<circle cx="550" cy="10" r="10" fill="#EEDACC"/>
<line x1="370" y1="150" x2="370" y2="50" stroke="#8338EC" stroke-width="10"/>
<line x1="465" y1="55" x2="365" y2="55" stroke="#8338EC" stroke-width="10"/>
<line x1="465" y1="100" x2="365" y2="100" stroke="#8338EC" stroke-width="10"/>
<line x1="460" y1="150" x2="460" y2="50" stroke="#8338EC" stroke-width="10"/>
<circle cx="460" cy="100" r="10" fill="#EEDACC"/>
<circle cx="370" cy="55" r="10" fill="#EEDACC"/>
<circle cx="460" cy="55" r="10" fill="#EEDACC"/>
<circle cx="370" cy="100" r="10" fill="#EEDACC"/>
<circle cx="370" cy="145" r="10" fill="#EEDACC"/>
<circle cx="460" cy="145" r="10" fill="#EEDACC"/>
<line x1="645" y1="57" x2="545" y2="57" stroke="#3A86FF" stroke-width="10"/>
<line x1="645" y1="102" x2="545" y2="102" stroke="#3A86FF" stroke-width="10"/>
<line x1="645" y1="147" x2="545" y2="147" stroke="#3A86FF" stroke-width="10"/>
<line x1="550" y1="52" x2="550" y2="152" stroke="#3A86FF" stroke-width="10"/>
<circle cx="550" cy="147" r="10" fill="#EEDACC"/>
<circle cx="640" cy="147" r="10" fill="#EEDACC"/>
<circle cx="550" cy="57" r="10" fill="#EEDACC"/>
<circle cx="640" cy="57" r="10" fill="#EEDACC"/>
<circle cx="550" cy="102" r="10" fill="#EEDACC"/>
<circle cx="640" cy="102" r="10" fill="#EEDACC"/>
<line x1="100" y1="5" x2="100" y2="105" stroke="#FFBE0B" stroke-width="10"/>
<path d="M101.347 8.44522L188.649 101.585" stroke="#FFBE0B" stroke-width="10"/>
<line x1="190" y1="5" x2="190" y2="105" stroke="#FFBE0B" stroke-width="10"/>
<circle cx="100" cy="100" r="10" fill="#EEDACC"/>
<circle cx="189" cy="100" r="10" fill="#EEDACC"/>
<circle cx="100" cy="10" r="10" fill="#EEDACC"/>
<circle cx="190" cy="10" r="10" fill="#EEDACC"/>
<line x1="234" y1="50" x2="234" y2="150" stroke="#FB5607" stroke-width="10"/>
<line x1="185" y1="55" x2="285" y2="55" stroke="#FB5607" stroke-width="10"/>
<circle cx="234" cy="145" r="10" fill="#EEDACC"/>
<circle cx="190" cy="55" r="10" fill="#EEDACC"/>
<circle cx="280" cy="55" r="10" fill="#EEDACC"/>
<path d="M368.649 101.585L324.127 54.0861" stroke="#FF006E" stroke-width="10"/>
<line x1="370" y1="5" x2="370" y2="55" stroke="#FF006E" stroke-width="10"/>
<line x1="275" y1="10" x2="375" y2="10" stroke="#FF006E" stroke-width="10"/>
<line x1="275" y1="55" x2="375" y2="55" stroke="#FF006E" stroke-width="10"/>
<line x1="280" y1="5" x2="280" y2="105" stroke="#FF006E" stroke-width="10"/>
<circle cx="280" cy="10" r="10" fill="#EEDACC"/>
<circle cx="370" cy="10" r="10" fill="#EEDACC"/>
<circle cx="280" cy="55" r="10" fill="#EEDACC"/>
<circle cx="370" cy="55" r="10" fill="#EEDACC"/>
<circle cx="325" cy="55" r="10" fill="#EEDACC"/>
<circle cx="280" cy="100" r="10" fill="#EEDACC"/>
<circle cx="370" cy="100" r="10" fill="#EEDACC"/>
<line x1="10" y1="50" x2="10" y2="150" stroke="#FB5607" stroke-width="10"/>
<line x1="100" y1="50" x2="100" y2="150" stroke="#FB5607" stroke-width="10"/>
<line x1="5.00002" y1="145" x2="105" y2="145" stroke="#FB5607" stroke-width="10"/>
<circle cx="100" cy="145" r="10" transform="rotate(-90 100 145)" fill="#EEDACC"/>
<circle cx="100" cy="55" r="10" transform="rotate(-90 100 55)" fill="#EEDACC"/>
<circle cx="10" cy="145" r="10" transform="rotate(-90 10 145)" fill="#EEDACC"/>
<circle cx="10" cy="55" r="10" transform="rotate(-90 10 55)" fill="#EEDACC"/>
<circle cx="100" cy="100" r="10" fill="#EEDACC"/>
</svg>
